<svg id="Capa_1" enable-background="new 0 0 512 512" height="512" viewBox="0 0 512 512" width="512" xmlns="http://www.w3.org/2000/svg"><g><g><path d="m342.874 504.5h-262.642c-11.158 0-20.203-9.045-20.203-20.203v-456.594c0-11.158 9.045-20.203 20.203-20.203h262.642c11.158 0 20.203 9.045 20.203 20.203v456.594c0 11.158-9.045 20.203-20.203 20.203z" fill="#707dd3"/></g><g><path d="m342.874 7.5h-25.254c11.158 0 20.203 9.045 20.203 20.203v456.594c0 11.158-9.045 20.203-20.203 20.203h25.254c11.158 0 20.203-9.045 20.203-20.203v-456.594c0-11.158-9.045-20.203-20.203-20.203z" fill="#5766cb"/></g><g><path d="m254.795 46.914-.62 1.985c-1.318 4.217-5.224 7.089-9.642 7.089h-65.96c-4.418 0-8.324-2.871-9.642-7.089l-.62-1.985c-1.318-4.217-5.223-7.089-9.642-7.089h-56.214c-5.579 0-10.102 4.523-10.102 10.102v412.146c0 5.579 4.523 10.102 10.102 10.102h218.195c5.579 0 10.102-4.523 10.102-10.102v-412.146c0-5.579-4.523-10.102-10.102-10.102h-56.214c-4.418 0-8.323 2.872-9.641 7.089z" fill="#90d8f9"/></g><g><path d="m185.289 216.604c0 23.649 5.707 46.758 16.592 67.507l-15.348 46.046c-2.903 8.712-.636 18.316 5.857 24.809 4.621 4.621 10.817 7.102 17.146 7.102 2.565 0 5.151-.407 7.663-1.245l46.046-15.348c20.75 10.885 43.858 16.592 67.507 16.592v-290.927c-80.209 0-145.463 65.254-145.463 145.464z" fill="#75cef9"/></g><g><path d="m330.752 95.384c-66.948 0-121.22 54.272-121.22 121.22 0 23.853 6.894 46.093 18.791 64.846l-18.791 56.374 56.374-18.791c18.753 11.897 40.993 18.791 64.846 18.791 66.948 0 121.22-54.272 121.22-121.22s-54.272-121.22-121.22-121.22z" fill="#b3e59f"/></g><g><path d="m425.198 140.623c.995 6.832 1.519 13.818 1.519 20.926 0 79.5-64.448 143.948-143.948 143.948-20.774 0-40.516-4.408-58.353-12.328l-14.884 44.653 56.374-18.791c18.753 11.897 40.993 18.791 64.846 18.791 66.948 0 121.22-54.272 121.22-121.22 0-28.768-10.03-55.192-26.774-75.979z" fill="#95d6a4"/></g><g><path d="m322.313 169.242-19.343-19.343c-5.341-5.341-14.002-5.341-19.343 0l-7.737 7.737c-18.161 18.161-18.161 47.606 0 65.767l50.292 50.292c18.161 18.161 47.606 18.161 65.767 0l7.737-7.737c5.341-5.341 5.341-14.002 0-19.343l-19.343-19.343c-5.341-5.341-14.002-5.341-19.343 0l-9.672 9.672-38.686-38.686 9.672-9.672c5.34-5.343 5.34-14.003-.001-19.344z" fill="#e4f6ff"/></g><g><path d="m459.47 216.6c0-34.131-13.218-66.28-37.22-90.526-2.915-2.944-7.664-2.967-10.606-.054-2.943 2.914-2.968 7.663-.054 10.606 21.203 21.419 32.88 49.82 32.88 79.974 0 62.706-51.015 113.721-113.72 113.721-21.624 0-42.655-6.094-60.821-17.622-1.904-1.208-4.25-1.497-6.39-.783l-42.15 14.048 14.047-42.141c.713-2.139.426-4.485-.781-6.389-11.53-18.181-17.624-39.217-17.624-60.834 0-62.705 51.015-113.72 113.72-113.72 19.124 0 38.034 4.839 54.687 13.992 3.632 1.995 8.189.671 10.186-2.959 1.995-3.63.671-8.19-2.959-10.186-7.045-3.873-14.447-7.062-22.083-9.541v-66.486c0-15.274-12.431-27.7-27.71-27.7h-262.642c-15.274 0-27.7 12.426-27.7 27.7v456.6c0 15.274 12.426 27.7 27.7 27.7h262.64c15.279 0 27.71-12.426 27.71-27.7v-61.3c0-4.143-3.357-7.5-7.5-7.5s-7.5 3.357-7.5 7.5v61.3c0 7.003-5.701 12.7-12.71 12.7h-262.64c-7.003 0-12.7-5.697-12.7-12.7v-456.6c0-7.003 5.697-12.7 12.7-12.7h262.64c7.009 0 12.71 5.697 12.71 12.7v62.605c-5.71-1.12-11.501-1.858-17.33-2.198v-38.177c0-9.704-7.896-17.6-17.6-17.6h-56.21c-7.738 0-14.493 4.957-16.811 12.349l-.623 1.999c-.337 1.084-1.332 1.812-2.477 1.812h-65.96c-1.143 0-2.141-.735-2.48-1.821l-.623-2.002c-2.313-7.379-9.062-12.337-16.797-12.337h-56.21c-9.71 0-17.61 7.896-17.61 17.6v27.95c0 4.143 3.357 7.5 7.5 7.5s7.5-3.357 7.5-7.5v-27.95c0-1.434 1.171-2.6 2.61-2.6h56.21c1.144 0 2.142.732 2.479 1.812l.622 1.998c2.312 7.388 9.062 12.351 16.799 12.351h65.96c7.755 0 14.507-4.97 16.8-12.358l.616-1.978c.343-1.091 1.345-1.824 2.494-1.824h56.21c1.434 0 2.6 1.166 2.6 2.6v38.174c-67.499 3.898-121.22 60.037-121.22 128.496 0 23.26 6.236 45.929 18.069 65.797l-17.685 53.052c-.898 2.695-.197 5.666 1.812 7.675 1.43 1.43 3.347 2.197 5.305 2.197.793 0 1.594-.126 2.37-.385l53.061-17.684c17.715 10.556 37.668 16.644 58.288 17.837v116.98c0 1.434-1.166 2.6-2.6 2.6h-218.189c-1.439 0-2.61-1.166-2.61-2.6v-349.19c0-4.143-3.357-7.5-7.5-7.5s-7.5 3.357-7.5 7.5v349.19c0 9.704 7.9 17.6 17.61 17.6h218.19c9.704 0 17.6-7.896 17.6-17.6v-116.974c5.891-.34 11.676-1.079 17.33-2.188v45.092c0 4.143 3.357 7.5 7.5 7.5s7.5-3.357 7.5-7.5v-48.995c51.54-16.813 88.89-65.326 88.89-122.405z"/><path d="m333.818 178.913c0-5.657-2.202-10.975-6.202-14.976l-19.343-19.343c-4.001-4-9.318-6.202-14.976-6.202s-10.975 2.202-14.976 6.202l-7.737 7.738c-21.055 21.056-21.055 55.316 0 76.373l50.293 50.291c10.2 10.2 23.762 15.818 38.187 15.818s27.987-5.618 38.188-15.818l7.736-7.736c4-4.001 6.202-9.318 6.202-14.976s-2.202-10.975-6.202-14.974l-19.344-19.345c-8.258-8.256-21.691-8.256-29.949 0l-4.368 4.369-28.08-28.08 4.369-4.367c4-3.999 6.202-9.317 6.202-14.974zm12.205 63.333c2.93 2.928 7.678 2.928 10.607 0l9.672-9.672c2.408-2.408 6.327-2.407 8.735-.001l19.344 19.345c1.167 1.167 1.809 2.718 1.809 4.367 0 1.65-.643 3.201-1.81 4.369l-7.736 7.736c-7.366 7.367-17.161 11.425-27.58 11.425-10.418 0-20.213-4.058-27.579-11.425l-50.293-50.29c-15.207-15.208-15.207-39.953 0-55.16l7.737-7.737c1.167-1.167 2.718-1.81 4.368-1.81s3.201.643 4.368 1.81l19.343 19.343c2.409 2.408 2.409 6.328.001 8.736l-9.672 9.671c-1.407 1.406-2.197 3.314-2.197 5.304s.79 3.896 2.196 5.304z"/></g></g></svg>