<?xml version="1.0" encoding="iso-8859-1"?>
<!-- Generator: Adobe Illustrator 19.0.0, SVG Export Plug-In . SVG Version: 6.00 Build 0)  -->
<svg version="1.1" id="Capa_1" xmlns="http://www.w3.org/2000/svg" xmlns:xlink="http://www.w3.org/1999/xlink" x="0px" y="0px"
	 viewBox="0 0 511.999 511.999" style="enable-background:new 0 0 511.999 511.999;" xml:space="preserve">
<path style="fill:#234C60;" d="M63.525,138.542L63.525,138.542c-5.676,0-10.277,4.601-10.277,10.277v25.576h20.553v-25.576
	C73.802,143.143,69.201,138.542,63.525,138.542z"/>
<path style="fill:#FF6D3A;" d="M370.66,130.084h-15.04c-4.097,0-7.418-3.321-7.418-7.418V72.185c0-4.097,3.321-7.418,7.418-7.418
	h15.04c4.097,0,7.418,3.321,7.418,7.418v50.481C378.078,126.763,374.757,130.084,370.66,130.084z"/>
<rect x="409.36" y="215.27" style="fill:#234C60;" width="70.19" height="27.29"/>
<g>
	<path style="fill:#2D5872;" d="M484.582,304.801L484.582,304.801c-11.118,0-20.132-9.013-20.132-20.132V173.171
		c0-11.118,9.013-20.132,20.132-20.132l0,0c11.118,0,20.132,9.013,20.132,20.132V284.67
		C504.713,295.788,495.7,304.801,484.582,304.801z"/>
	<path style="fill:#2D5872;" d="M73.802,180.393v72.83l209.063,17.741c28.272,2.993,48.042,29.379,42.973,57.353l-15.677,88.081
		H435.33V211.679c0-34.825-30.175-61.974-64.806-58.308L73.802,180.393z"/>
</g>
<path style="fill:#234C60;" d="M373.513,153.137c10.159,10.502,16.48,24.808,16.48,40.731v165.985
	c0,14.412-11.684,26.096-26.096,26.096h-48.315l-5.419,30.449h125.169V211.679C435.331,177.86,406.873,151.286,373.513,153.137z"/>
<path style="fill:#FF6D3A;" d="M461.963,447.234H22.66c-8.49,0-15.373-6.883-15.373-15.373v-6.562
	c0-8.49,6.883-15.373,15.373-15.373h439.303c8.49,0,15.373,6.883,15.373,15.373v6.562
	C477.336,440.351,470.453,447.234,461.963,447.234z"/>
<path style="fill:#ED5729;" d="M461.963,409.924h-29.641v9.882c0,5.756-4.666,10.422-10.422,10.422H7.287v1.632
	c0,8.49,6.883,15.373,15.373,15.373h439.303c8.49,0,15.373-6.883,15.373-15.373v-6.562
	C477.336,416.808,470.453,409.924,461.963,409.924z"/>
<path style="fill:#234C60;" d="M62.587,326.853L62.587,326.853c-7.848,0-14.21-6.362-14.21-14.21v-36.241h28.42v36.241
	C76.797,320.491,70.435,326.853,62.587,326.853z"/>
<path style="fill:#2D5872;" d="M49.935,290.583h25.304c4.167,0,7.605-3.263,7.822-7.425l5.923-113.892
	c0.233-4.479-3.336-8.239-7.822-8.239h-37.15c-4.485,0-8.054,3.76-7.822,8.239l5.923,113.892
	C42.33,287.32,45.768,290.583,49.935,290.583z"/>
<g>
	<circle style="fill:#61AFF7;" cx="375.92" cy="284.72" r="20.08"/>
	<circle style="fill:#61AFF7;" cx="375.92" cy="356.64" r="20.08"/>
</g>
<path style="fill:#234C60;" d="M81.162,161.027H62.587v129.556h12.652c4.167,0,7.605-3.264,7.822-7.425l5.923-113.892
	C89.217,164.786,85.648,161.027,81.162,161.027z"/>
<g>
	<path style="fill:#55A2F0;" d="M390.121,298.919c7.843-7.843,7.843-20.558,0-28.401l-28.401,28.401
		C369.563,306.762,382.278,306.762,390.121,298.919z"/>
	<path style="fill:#55A2F0;" d="M390.121,370.845c7.843-7.843,7.843-20.558,0-28.401l-28.401,28.401
		C369.563,378.688,382.278,378.688,390.121,370.845z"/>
</g>
<path style="fill:#234C60;" d="M484.582,304.801c11.118,0,20.132-9.013,20.132-20.132V173.171c0-11.118-9.013-20.132-20.132-20.132
	l0,0V304.801L484.582,304.801z"/>
<path d="M375.92,312.075c7.009,0,14.017-2.668,19.352-8.003c5.169-5.17,8.017-12.043,8.017-19.353s-2.847-14.183-8.016-19.352
	c-5.169-5.17-12.042-8.017-19.353-8.017s-14.184,2.847-19.352,8.016c-5.169,5.17-8.017,12.043-8.017,19.353
	s2.847,14.183,8.017,19.353C361.903,309.407,368.912,312.075,375.92,312.075z M366.873,275.671c2.417-2.417,5.63-3.748,9.047-3.748
	s6.631,1.331,9.048,3.749c2.417,2.417,3.748,5.63,3.748,9.047s-1.331,6.631-3.748,9.047c-4.99,4.991-13.107,4.991-18.096,0
	c-2.417-2.417-3.748-5.63-3.748-9.047S364.455,278.088,366.873,275.671z"/>
<path d="M356.568,375.997c5.335,5.335,12.344,8.003,19.352,8.003c7.009,0,14.017-2.668,19.352-8.003v-0.001
	c5.169-5.169,8.017-12.043,8.017-19.353s-2.847-14.183-8.017-19.353c-10.671-10.671-28.034-10.672-38.705,0
	c-5.169,5.17-8.017,12.043-8.017,19.353C348.551,363.954,351.398,370.828,356.568,375.997z M366.872,347.596
	c2.495-2.495,5.771-3.742,9.048-3.742s6.554,1.247,9.048,3.742c2.417,2.417,3.748,5.63,3.748,9.047c0,3.418-1.331,6.632-3.748,9.048
	c-4.988,4.991-13.106,4.989-18.095,0.001c-2.417-2.417-3.749-5.631-3.749-9.049C363.124,353.227,364.455,350.013,366.872,347.596z"
	/>
<path d="M484.582,145.753c-15.118,0-27.418,12.3-27.418,27.417v34.816h-14.656c-0.975-17.309-8.765-33.656-21.72-45.311
	c-13.706-12.333-32.024-18.355-50.362-16.604v-8.702h0.234c8.108,0,14.705-6.597,14.705-14.705v-50.48
	c0-8.108-6.597-14.704-14.705-14.704h-15.04c-8.108,0-14.705,6.596-14.705,14.704v50.481c0,8.108,6.597,14.705,14.705,14.705h0.233
	v10.021l-23.607,2.15c-4.008,0.364-6.961,3.909-6.596,7.917s3.903,6.969,7.917,6.596l30.3-2.759c0.01-0.001,0.019-0.002,0.029-0.003
	l7.29-0.664c0.036-0.003,0.071-0.007,0.106-0.01c14.452-1.528,28.943,3.168,39.749,12.891c10.806,9.722,17.003,23.635,17.003,38.171
	v3.594v27.294v160.071H320.012l12.997-73.023c2.776-15.32-0.987-31.253-10.323-43.713c-9.336-12.459-23.57-20.546-39.053-22.184
	c-0.05-0.006-0.101-0.01-0.151-0.014L92.213,247.472l3.211-61.732l193.06-17.581c4.008-0.364,6.961-3.909,6.596-7.917
	c-0.365-4.009-3.911-6.98-7.917-6.596l-190.974,17.39l0.072-1.393c0.214-4.121-1.292-8.202-4.134-11.194
	c-2.841-2.993-6.838-4.71-10.964-4.71h-0.074v-4.921c0-9.684-7.879-17.563-17.563-17.563c-9.685,0-17.564,7.879-17.564,17.563v4.921
	h-1.95c-4.127,0-8.123,1.716-10.964,4.71c-2.842,2.992-4.348,7.073-4.134,11.194l2.94,56.54c0.209,4.019,3.631,7.086,7.655,6.898
	c4.019-0.21,7.107-3.637,6.898-7.656l-2.94-56.54c-0.003-0.058-0.012-0.234,0.149-0.404s0.337-0.17,0.395-0.17h9.236H73.8h7.361
	c0.058,0,0.234,0,0.396,0.17c0.161,0.171,0.152,0.346,0.149,0.404l-5.923,113.892c-0.015,0.29-0.254,0.518-0.545,0.518H49.935
	c-0.29,0-0.53-0.228-0.545-0.518l-0.613-11.799c-0.209-4.019-3.649-7.098-7.655-6.898c-4.019,0.21-7.108,3.637-6.898,7.656
	l0.613,11.799c0.246,4.743,2.666,8.866,6.254,11.46v17.647c0,9.296,5.933,17.231,14.21,20.223v38.054
	c0,4.025,3.262,7.287,7.287,7.287s7.287-3.262,7.287-7.287v-38.053c8.277-2.992,14.21-10.926,14.21-20.223v-17.647
	c3.588-2.594,6.007-6.718,6.253-11.46l1.118-21.503l190.716,16.185c11.606,1.248,21.85,7.078,28.852,16.423
	c7.017,9.364,9.732,20.862,7.642,32.398l-13.455,75.599H22.66C10.165,402.639,0,412.803,0,425.298v6.563
	c0,12.494,10.165,22.659,22.66,22.659h439.303c12.495,0,22.66-10.165,22.66-22.659v-6.563c0-12.494-10.165-22.659-22.66-22.659
	h-19.346V249.854h14.546v34.816c0,15.119,12.3,27.418,27.418,27.418c15.119,0,27.418-12.3,27.418-27.418V173.171
	C512,158.053,499.7,145.753,484.582,145.753z M355.62,122.797c-0.073,0-0.132-0.059-0.132-0.132V72.184
	c0-0.072,0.059-0.131,0.132-0.131h15.04c0.073,0,0.132,0.059,0.132,0.131v50.481c0,0.073-0.059,0.132-0.132,0.132H355.62z
	 M66.515,153.74h-5.98v-4.921c0-1.648,1.342-2.99,2.991-2.99c1.648,0,2.99,1.342,2.99,2.99L66.515,153.74L66.515,153.74z
	 M69.511,312.643c0,3.818-3.106,6.923-6.924,6.923c-3.817,0-6.923-3.105-6.923-6.923V297.87h13.847V312.643z M461.963,417.212
	c4.459,0,8.087,3.627,8.087,8.086v6.563c0,4.459-3.628,8.086-8.087,8.086H22.66c-4.459,0-8.087-3.627-8.087-8.086v-6.563
	c0-4.459,3.628-8.086,8.087-8.086h412.671H461.963z M457.164,235.281h-14.546V222.56h14.546V235.281z M497.427,284.67
	c0,7.083-5.762,12.845-12.845,12.845s-12.845-5.763-12.845-12.845v-42.102v-27.294v-42.102c0-7.083,5.762-12.844,12.845-12.844
	s12.845,5.762,12.845,12.844V284.67z"/>
<g>
</g>
<g>
</g>
<g>
</g>
<g>
</g>
<g>
</g>
<g>
</g>
<g>
</g>
<g>
</g>
<g>
</g>
<g>
</g>
<g>
</g>
<g>
</g>
<g>
</g>
<g>
</g>
<g>
</g>
</svg>
